<mxfile host="app.diagrams.net" modified="2024-03-19T04:42:46.478Z" agent="Mozilla/5.0 (Windows NT 10.0; Win64; x64) AppleWebKit/537.36 (KHTML, like Gecko) Chrome/122.0.0.0 Safari/537.36" etag="1Or5AW8nxxa9Oz6mgec4" version="24.0.6" type="github">
  <diagram id="C5RBs43oDa-KdzZeNtuy" name="Page-1">
    <mxGraphModel dx="1961" dy="637" grid="1" gridSize="10" guides="1" tooltips="1" connect="1" arrows="1" fold="1" page="1" pageScale="1" pageWidth="827" pageHeight="1169" math="0" shadow="0">
      <root>
        <mxCell id="WIyWlLk6GJQsqaUBKTNV-0" />
        <mxCell id="WIyWlLk6GJQsqaUBKTNV-1" parent="WIyWlLk6GJQsqaUBKTNV-0" />
        <mxCell id="KBJSsrwtoQW0ISKN4Z76-0" value="Entry" style="rounded=1;whiteSpace=wrap;html=1;" vertex="1" parent="WIyWlLk6GJQsqaUBKTNV-1">
          <mxGeometry x="320" y="60" width="120" height="30" as="geometry" />
        </mxCell>
        <mxCell id="KBJSsrwtoQW0ISKN4Z76-1" value="int index = 0&lt;div&gt;int result = -1&lt;/div&gt;" style="rounded=1;whiteSpace=wrap;html=1;" vertex="1" parent="WIyWlLk6GJQsqaUBKTNV-1">
          <mxGeometry x="320" y="140" width="120" height="40" as="geometry" />
        </mxCell>
        <mxCell id="KBJSsrwtoQW0ISKN4Z76-2" value="" style="endArrow=classic;html=1;rounded=0;" edge="1" parent="WIyWlLk6GJQsqaUBKTNV-1" source="KBJSsrwtoQW0ISKN4Z76-0" target="KBJSsrwtoQW0ISKN4Z76-1">
          <mxGeometry width="50" height="50" relative="1" as="geometry">
            <mxPoint x="340" y="100" as="sourcePoint" />
            <mxPoint x="430" y="180" as="targetPoint" />
          </mxGeometry>
        </mxCell>
        <mxCell id="KBJSsrwtoQW0ISKN4Z76-3" value="while(index &amp;lt; arr.length)" style="rounded=1;whiteSpace=wrap;html=1;arcSize=20;" vertex="1" parent="WIyWlLk6GJQsqaUBKTNV-1">
          <mxGeometry x="305" y="220" width="150" height="40" as="geometry" />
        </mxCell>
        <mxCell id="KBJSsrwtoQW0ISKN4Z76-5" value="" style="endArrow=classic;html=1;rounded=0;" edge="1" parent="WIyWlLk6GJQsqaUBKTNV-1" source="KBJSsrwtoQW0ISKN4Z76-1" target="KBJSsrwtoQW0ISKN4Z76-3">
          <mxGeometry width="50" height="50" relative="1" as="geometry">
            <mxPoint x="530" y="180" as="sourcePoint" />
            <mxPoint x="580" y="130" as="targetPoint" />
          </mxGeometry>
        </mxCell>
        <mxCell id="KBJSsrwtoQW0ISKN4Z76-7" value="if(arr[index] == target)" style="rounded=1;whiteSpace=wrap;html=1;" vertex="1" parent="WIyWlLk6GJQsqaUBKTNV-1">
          <mxGeometry x="315" y="310" width="130" height="40" as="geometry" />
        </mxCell>
        <mxCell id="KBJSsrwtoQW0ISKN4Z76-8" value="result = index" style="rounded=1;whiteSpace=wrap;html=1;" vertex="1" parent="WIyWlLk6GJQsqaUBKTNV-1">
          <mxGeometry x="590" y="310" width="120" height="40" as="geometry" />
        </mxCell>
        <mxCell id="KBJSsrwtoQW0ISKN4Z76-10" value="" style="endArrow=classic;html=1;rounded=0;exitX=0.5;exitY=1;exitDx=0;exitDy=0;" edge="1" parent="WIyWlLk6GJQsqaUBKTNV-1" source="KBJSsrwtoQW0ISKN4Z76-3" target="KBJSsrwtoQW0ISKN4Z76-7">
          <mxGeometry width="50" height="50" relative="1" as="geometry">
            <mxPoint x="380" y="430" as="sourcePoint" />
            <mxPoint x="430" y="380" as="targetPoint" />
          </mxGeometry>
        </mxCell>
        <mxCell id="KBJSsrwtoQW0ISKN4Z76-41" style="edgeStyle=orthogonalEdgeStyle;rounded=0;orthogonalLoop=1;jettySize=auto;html=1;exitX=1;exitY=0.25;exitDx=0;exitDy=0;" edge="1" parent="WIyWlLk6GJQsqaUBKTNV-1" source="KBJSsrwtoQW0ISKN4Z76-11">
          <mxGeometry relative="1" as="geometry">
            <mxPoint x="510" y="277.28571428571433" as="targetPoint" />
          </mxGeometry>
        </mxCell>
        <mxCell id="KBJSsrwtoQW0ISKN4Z76-11" value="index &amp;lt; arr.length" style="text;html=1;align=center;verticalAlign=middle;whiteSpace=wrap;rounded=0;" vertex="1" parent="WIyWlLk6GJQsqaUBKTNV-1">
          <mxGeometry x="380" y="270" width="120" height="30" as="geometry" />
        </mxCell>
        <mxCell id="KBJSsrwtoQW0ISKN4Z76-13" value="" style="endArrow=classic;html=1;rounded=0;" edge="1" parent="WIyWlLk6GJQsqaUBKTNV-1" source="KBJSsrwtoQW0ISKN4Z76-7" target="KBJSsrwtoQW0ISKN4Z76-8">
          <mxGeometry width="50" height="50" relative="1" as="geometry">
            <mxPoint x="380" y="430" as="sourcePoint" />
            <mxPoint x="430" y="380" as="targetPoint" />
          </mxGeometry>
        </mxCell>
        <mxCell id="KBJSsrwtoQW0ISKN4Z76-14" value="arr[index] == target" style="text;html=1;align=center;verticalAlign=middle;whiteSpace=wrap;rounded=0;" vertex="1" parent="WIyWlLk6GJQsqaUBKTNV-1">
          <mxGeometry x="450" y="330" width="130" height="30" as="geometry" />
        </mxCell>
        <mxCell id="KBJSsrwtoQW0ISKN4Z76-15" value="return result" style="rounded=1;whiteSpace=wrap;html=1;" vertex="1" parent="WIyWlLk6GJQsqaUBKTNV-1">
          <mxGeometry x="320" y="690" width="120" height="30" as="geometry" />
        </mxCell>
        <mxCell id="KBJSsrwtoQW0ISKN4Z76-18" value="" style="endArrow=classic;html=1;rounded=0;exitX=0.75;exitY=1;exitDx=0;exitDy=0;entryX=1;entryY=0.5;entryDx=0;entryDy=0;edgeStyle=orthogonalEdgeStyle;curved=1;" edge="1" parent="WIyWlLk6GJQsqaUBKTNV-1" source="KBJSsrwtoQW0ISKN4Z76-8" target="KBJSsrwtoQW0ISKN4Z76-15">
          <mxGeometry width="50" height="50" relative="1" as="geometry">
            <mxPoint x="230" y="450" as="sourcePoint" />
            <mxPoint x="280" y="400" as="targetPoint" />
            <Array as="points">
              <mxPoint x="700" y="350" />
              <mxPoint x="700" y="705" />
            </Array>
          </mxGeometry>
        </mxCell>
        <mxCell id="KBJSsrwtoQW0ISKN4Z76-33" value="" style="edgeStyle=orthogonalEdgeStyle;rounded=0;orthogonalLoop=1;jettySize=auto;html=1;" edge="1" parent="WIyWlLk6GJQsqaUBKTNV-1" source="KBJSsrwtoQW0ISKN4Z76-20" target="KBJSsrwtoQW0ISKN4Z76-11">
          <mxGeometry relative="1" as="geometry" />
        </mxCell>
        <mxCell id="KBJSsrwtoQW0ISKN4Z76-20" value="if(arr[index] &amp;gt; target)" style="rounded=1;whiteSpace=wrap;html=1;" vertex="1" parent="WIyWlLk6GJQsqaUBKTNV-1">
          <mxGeometry x="320" y="400" width="120" height="30" as="geometry" />
        </mxCell>
        <mxCell id="KBJSsrwtoQW0ISKN4Z76-22" value="" style="endArrow=classic;html=1;rounded=0;" edge="1" parent="WIyWlLk6GJQsqaUBKTNV-1" source="KBJSsrwtoQW0ISKN4Z76-7" target="KBJSsrwtoQW0ISKN4Z76-20">
          <mxGeometry width="50" height="50" relative="1" as="geometry">
            <mxPoint x="380" y="430" as="sourcePoint" />
            <mxPoint x="430" y="380" as="targetPoint" />
          </mxGeometry>
        </mxCell>
        <mxCell id="KBJSsrwtoQW0ISKN4Z76-23" value="System.out.println(&quot;Number is greater than target&quot;)" style="rounded=1;whiteSpace=wrap;html=1;" vertex="1" parent="WIyWlLk6GJQsqaUBKTNV-1">
          <mxGeometry x="60" y="470" width="290" height="40" as="geometry" />
        </mxCell>
        <mxCell id="KBJSsrwtoQW0ISKN4Z76-24" value="" style="endArrow=classic;html=1;rounded=0;exitX=0.5;exitY=1;exitDx=0;exitDy=0;" edge="1" parent="WIyWlLk6GJQsqaUBKTNV-1" source="KBJSsrwtoQW0ISKN4Z76-20" target="KBJSsrwtoQW0ISKN4Z76-26">
          <mxGeometry width="50" height="50" relative="1" as="geometry">
            <mxPoint x="200" y="600" as="sourcePoint" />
            <mxPoint x="250" y="550" as="targetPoint" />
          </mxGeometry>
        </mxCell>
        <mxCell id="KBJSsrwtoQW0ISKN4Z76-25" value="" style="endArrow=classic;html=1;rounded=0;" edge="1" parent="WIyWlLk6GJQsqaUBKTNV-1" source="KBJSsrwtoQW0ISKN4Z76-20" target="KBJSsrwtoQW0ISKN4Z76-23">
          <mxGeometry width="50" height="50" relative="1" as="geometry">
            <mxPoint x="380" y="530" as="sourcePoint" />
            <mxPoint x="430" y="480" as="targetPoint" />
          </mxGeometry>
        </mxCell>
        <mxCell id="KBJSsrwtoQW0ISKN4Z76-26" value="System.out.println(&quot;Number is smaller than target&quot;)" style="rounded=1;whiteSpace=wrap;html=1;" vertex="1" parent="WIyWlLk6GJQsqaUBKTNV-1">
          <mxGeometry x="360" y="470" width="310" height="40" as="geometry" />
        </mxCell>
        <mxCell id="KBJSsrwtoQW0ISKN4Z76-27" value="index++" style="rounded=1;whiteSpace=wrap;html=1;" vertex="1" parent="WIyWlLk6GJQsqaUBKTNV-1">
          <mxGeometry x="320" y="555" width="120" height="30" as="geometry" />
        </mxCell>
        <mxCell id="KBJSsrwtoQW0ISKN4Z76-28" value="" style="endArrow=classic;html=1;rounded=0;" edge="1" parent="WIyWlLk6GJQsqaUBKTNV-1" source="KBJSsrwtoQW0ISKN4Z76-23" target="KBJSsrwtoQW0ISKN4Z76-27">
          <mxGeometry width="50" height="50" relative="1" as="geometry">
            <mxPoint x="380" y="530" as="sourcePoint" />
            <mxPoint x="430" y="480" as="targetPoint" />
          </mxGeometry>
        </mxCell>
        <mxCell id="KBJSsrwtoQW0ISKN4Z76-30" value="" style="endArrow=classic;html=1;rounded=0;" edge="1" parent="WIyWlLk6GJQsqaUBKTNV-1" source="KBJSsrwtoQW0ISKN4Z76-26" target="KBJSsrwtoQW0ISKN4Z76-27">
          <mxGeometry width="50" height="50" relative="1" as="geometry">
            <mxPoint x="380" y="530" as="sourcePoint" />
            <mxPoint x="430" y="480" as="targetPoint" />
          </mxGeometry>
        </mxCell>
        <mxCell id="KBJSsrwtoQW0ISKN4Z76-31" value="" style="endArrow=classic;html=1;rounded=0;exitX=0;exitY=0.75;exitDx=0;exitDy=0;entryX=0;entryY=0.5;entryDx=0;entryDy=0;edgeStyle=orthogonalEdgeStyle;curved=1;" edge="1" parent="WIyWlLk6GJQsqaUBKTNV-1" source="KBJSsrwtoQW0ISKN4Z76-27" target="KBJSsrwtoQW0ISKN4Z76-3">
          <mxGeometry width="50" height="50" relative="1" as="geometry">
            <mxPoint x="260" y="450" as="sourcePoint" />
            <mxPoint x="310" y="400" as="targetPoint" />
            <Array as="points">
              <mxPoint x="-20" y="578" />
              <mxPoint x="-20" y="240" />
            </Array>
          </mxGeometry>
        </mxCell>
        <mxCell id="KBJSsrwtoQW0ISKN4Z76-32" value="" style="endArrow=classic;html=1;rounded=0;edgeStyle=orthogonalEdgeStyle;curved=1;entryX=1;entryY=1;entryDx=0;entryDy=0;" edge="1" parent="WIyWlLk6GJQsqaUBKTNV-1" source="KBJSsrwtoQW0ISKN4Z76-3" target="KBJSsrwtoQW0ISKN4Z76-15">
          <mxGeometry width="50" height="50" relative="1" as="geometry">
            <mxPoint x="450" y="240" as="sourcePoint" />
            <mxPoint x="445" y="710" as="targetPoint" />
            <Array as="points">
              <mxPoint x="460" y="240" />
              <mxPoint x="460" y="250" />
              <mxPoint x="785" y="250" />
              <mxPoint x="785" y="720" />
            </Array>
          </mxGeometry>
        </mxCell>
        <mxCell id="KBJSsrwtoQW0ISKN4Z76-34" value="arr[index] != target" style="text;html=1;align=center;verticalAlign=middle;whiteSpace=wrap;rounded=0;" vertex="1" parent="WIyWlLk6GJQsqaUBKTNV-1">
          <mxGeometry x="260" y="360" width="110" height="30" as="geometry" />
        </mxCell>
        <mxCell id="KBJSsrwtoQW0ISKN4Z76-35" value="arr[index] &amp;gt; target" style="text;html=1;align=center;verticalAlign=middle;whiteSpace=wrap;rounded=0;" vertex="1" parent="WIyWlLk6GJQsqaUBKTNV-1">
          <mxGeometry x="180" y="430" width="110" height="30" as="geometry" />
        </mxCell>
        <mxCell id="KBJSsrwtoQW0ISKN4Z76-36" value="arr[index] &amp;lt;= target" style="text;html=1;align=center;verticalAlign=middle;whiteSpace=wrap;rounded=0;" vertex="1" parent="WIyWlLk6GJQsqaUBKTNV-1">
          <mxGeometry x="430" y="430" width="120" height="30" as="geometry" />
        </mxCell>
        <mxCell id="KBJSsrwtoQW0ISKN4Z76-37" value="exit" style="rounded=1;whiteSpace=wrap;html=1;" vertex="1" parent="WIyWlLk6GJQsqaUBKTNV-1">
          <mxGeometry x="320" y="780" width="120" height="30" as="geometry" />
        </mxCell>
        <mxCell id="KBJSsrwtoQW0ISKN4Z76-39" value="" style="endArrow=classic;html=1;rounded=0;entryX=0.5;entryY=0;entryDx=0;entryDy=0;" edge="1" parent="WIyWlLk6GJQsqaUBKTNV-1" source="KBJSsrwtoQW0ISKN4Z76-15" target="KBJSsrwtoQW0ISKN4Z76-37">
          <mxGeometry width="50" height="50" relative="1" as="geometry">
            <mxPoint x="480" y="630" as="sourcePoint" />
            <mxPoint x="530" y="580" as="targetPoint" />
          </mxGeometry>
        </mxCell>
        <mxCell id="KBJSsrwtoQW0ISKN4Z76-43" value="index &amp;gt;= arr.length" style="text;html=1;align=center;verticalAlign=middle;whiteSpace=wrap;rounded=0;" vertex="1" parent="WIyWlLk6GJQsqaUBKTNV-1">
          <mxGeometry x="540" y="220" width="140" height="30" as="geometry" />
        </mxCell>
      </root>
    </mxGraphModel>
  </diagram>
</mxfile>
